<?xml version="1.0" standalone="no"?><!DOCTYPE svg PUBLIC "-//W3C//DTD SVG 1.1//EN" "http://www.w3.org/Graphics/SVG/1.1/DTD/svg11.dtd"><svg t="1747048503369" class="icon" viewBox="0 0 1024 1024" version="1.1" xmlns="http://www.w3.org/2000/svg" p-id="1536" xmlns:xlink="http://www.w3.org/1999/xlink" width="200" height="200"><path d="M215.572415 296.427585h296.427585v80.669009H215.572415z m458.07587 80.669009h134.717246v-80.669009h-134.717246v-53.924131h-80.66901v188.641377h80.66901z m-161.648285 269.434493h296.427585v80.66901H512zM350.289662 781.248334h80.66901V592.606957h-80.66901v53.862077H215.572415v80.66901h134.469035z" p-id="1537" fill="#ffffff"></path><path d="M983.541389 0H40.334505a41.45146 41.45146 0 0 0-40.396558 40.396558v943.206884a41.45146 41.45146 0 0 0 40.396558 40.396558h943.206884a41.45146 41.45146 0 0 0 40.396558-40.396558V40.396558A41.45146 41.45146 0 0 0 983.541389 0z m-40.396558 943.206884h-862.537874V80.66901h862.537874v862.537874z" p-id="1538" fill="#ffffff"></path></svg>