<?xml version="1.0" standalone="no"?><!DOCTYPE svg PUBLIC "-//W3C//DTD SVG 1.1//EN" "http://www.w3.org/Graphics/SVG/1.1/DTD/svg11.dtd"><svg t="1747048463881" class="icon" viewBox="0 0 1024 1024" version="1.1" xmlns="http://www.w3.org/2000/svg" p-id="974" xmlns:xlink="http://www.w3.org/1999/xlink" width="200" height="200"><path d="M791.23684 1023.988284H232.710439A230.479197 230.479197 0 0 1 0.018225 791.230982V232.70458A230.479197 230.479197 0 0 1 232.710439 0.012367h558.526401a230.479197 230.479197 0 0 1 232.692213 232.692213v558.526402a230.479197 230.479197 0 0 1-232.692213 232.757302zM232.710439 93.089252A143.195208 143.195208 0 0 0 93.09511 232.70458v558.526402A143.195208 143.195208 0 0 0 232.710439 930.781221h558.526401a143.195208 143.195208 0 0 0 139.550239-139.550239V232.70458a143.195208 143.195208 0 0 0-139.550239-139.615328H232.710439z" p-id="975" fill="#ffffff"></path><path d="M791.23684 372.384997h-186.153771a46.538443 46.538443 0 1 1 0-93.076885h186.153771a46.538443 46.538443 0 1 1 0 93.076885z m0 372.372631h-186.153771a46.538443 46.538443 0 1 1 0-93.076886h186.153771a46.538443 46.538443 0 1 1 0 93.076886zM456.094964 260.692735L297.864258 437.538817a34.88756 34.88756 0 0 1-55.846131 0l-46.538443-55.846131a79.538429 79.538429 0 0 1 0-65.088731 34.88756 34.88756 0 0 1 55.846132 0l27.923065 27.923065 130.177462-148.923016a42.307675 42.307675 0 0 1 46.538443 0 55.455599 55.455599 0 0 1 0.130178 65.088731z m-130.177463 577.141778a139.615328 139.615328 0 1 1 139.615329-139.615328 143.195208 143.195208 0 0 1-139.745506 139.615328z m0-186.153771a46.538443 46.538443 0 1 0 46.538443 46.538443 43.999982 43.999982 0 0 0-46.66862-46.538443z" p-id="976" fill="#ffffff"></path></svg>