<?xml version="1.0" standalone="no"?><!DOCTYPE svg PUBLIC "-//W3C//DTD SVG 1.1//EN" "http://www.w3.org/Graphics/SVG/1.1/DTD/svg11.dtd"><svg t="1747048489407" class="icon" viewBox="0 0 1024 1024" version="1.1" xmlns="http://www.w3.org/2000/svg" p-id="1349" xmlns:xlink="http://www.w3.org/1999/xlink" width="200" height="200"><path d="M894.659548 67.863655h-105.659137v63.395483H870.583984v824.141273H153.573717V131.259138h81.373306V67.863655H129.393018a37.480082 37.480082 0 0 0-36.796714 38.16345v874.552772a37.480082 37.480082 0 0 0 36.796714 38.110883h765.371664a37.480082 37.480082 0 0 0 36.796714-38.110883V106.027105a37.480082 37.480082 0 0 0-36.901848-38.16345z" p-id="1350" fill="#ffffff"></path><path d="M419.82423 67.863655h183.983573v63.395483h-183.983573zM330.197947 192.23655a30.804107 30.804107 0 0 0 29.857905-31.540041V36.954415a29.910472 29.910472 0 1 0-59.768378 0v123.584394a30.804107 30.804107 0 0 0 29.910473 31.697741z m363.498973 0a30.804107 30.804107 0 0 0 29.857905-31.540041V36.954415a29.910472 29.910472 0 1 0-59.768377 0v123.584394a30.804107 30.804107 0 0 0 29.910472 31.697741zM401.79384 321.130185h380.688296v63.448049H401.79384z m0 208.321971h380.688296v63.395483H401.79384z m0 208.321971h380.688296v63.395483H401.79384zM241.360164 321.182752h59.768378v63.395482H241.360164z m0 208.321971h59.768378v63.395482H241.360164z m0 208.321971h59.768378v63.395483H241.360164z" p-id="1351" fill="#ffffff"></path></svg>