<?xml version="1.0" standalone="no"?><!DOCTYPE svg PUBLIC "-//W3C//DTD SVG 1.1//EN" "http://www.w3.org/Graphics/SVG/1.1/DTD/svg11.dtd"><svg t="1747048446335" class="icon" viewBox="0 0 1024 1024" version="1.1" xmlns="http://www.w3.org/2000/svg" p-id="1498" xmlns:xlink="http://www.w3.org/1999/xlink" width="200" height="200"><path d="M502.71 771H267.48l-37.13-252.45c-2.22-15.12 12.36-27.21 26.81-22.23l82.31 28.4c11.48 3.96 24.17-0.65 30.43-11.06l76.72-127.58c9.05-15.04 30.85-15.04 39.9 0l76.72 127.58c6.26 10.41 18.95 15.02 30.43 11.06l82.31-28.4c14.44-4.98 29.03 7.11 26.81 22.23L669.68 743.7c-2.31 15.68-15.76 27.3-31.61 27.3H502.72z" fill="#ffffff" p-id="1499"></path><path d="M752.2 830.92h-70.61v-60h70.61c6.98 0 13.01-5.21 14.02-12.11l45.35-308.37-110.97 38.29c-29.09 10.04-61.71-1.82-77.57-28.19L516.94 284.13c-0.24-0.4-0.64-1.06-1.88-1.06-1.24 0-1.64 0.67-1.88 1.06L407.09 460.54c-15.86 26.37-48.48 38.22-77.57 28.19l-110.97-38.29 45.35 308.37c1.02 6.91 7.04 12.11 14.02 12.11h317.12v60H277.92c-17.8 0-35.02-6.41-48.48-18.04a74.195 74.195 0 0 1-24.9-45.34l-45.78-311.33c-2.98-20.27 4.65-40.17 20.42-53.25 15.77-13.08 36.74-16.89 56.11-10.21l113.81 39.27c2.47 0.85 5.23-0.15 6.58-2.39l106.09-176.41c11.35-18.87 31.27-30.14 53.29-30.14s41.94 11.27 53.29 30.14l106.09 176.41a5.591 5.591 0 0 0 6.58 2.39l113.81-39.27c19.36-6.68 40.34-2.87 56.11 10.21 15.77 13.08 23.4 32.98 20.42 53.25l-45.78 311.33a74.168 74.168 0 0 1-24.9 45.34 74.218 74.218 0 0 1-48.48 18.04z" p-id="1500" fill="#ffffff"></path><path d="M367 642.39h296.13v60H367z" p-id="1501" fill="#ffffff"></path></svg>